<svg width="59" height="60" viewBox="0 0 59 60" fill="none" xmlns="http://www.w3.org/2000/svg">
<path fill-rule="evenodd" clip-rule="evenodd" d="M58.712 20.6862L51.5039 0.775757H7.41387L0.53125 20.6862C0.53125 22.5455 1.39551 24.2002 2.74155 25.2789V59.7696H56.4092V25.3634C57.8192 24.2887 58.7326 22.5966 58.7326 20.6862H58.712ZM53.4595 56.8199H5.69125V26.5207C5.92919 26.5502 6.17008 26.5698 6.41589 26.5698C9.66546 26.5698 12.2995 23.9358 12.2995 20.6862H16.6572C16.6572 23.9358 19.2923 26.5698 22.5409 26.5698C25.7914 26.5698 28.4265 23.9358 28.4265 20.6862H32.3034C32.3034 23.9358 34.9374 26.5698 38.188 26.5698C41.4376 26.5698 44.0717 23.9358 44.0717 20.6862H46.9643C46.9643 23.9358 49.5984 26.5698 52.849 26.5698C53.0554 26.5698 53.259 26.559 53.4605 26.5384L53.4595 56.8199Z" fill="#9C8A5E"/>
</svg>
