<svg width="63" height="62" viewBox="0 0 63 62" fill="none" xmlns="http://www.w3.org/2000/svg">
<path fill-rule="evenodd" clip-rule="evenodd" d="M62.7186 31.992C62.7186 14.7884 48.8639 0.842285 31.7733 0.842285C14.6828 0.842285 0.828125 14.7884 0.828125 31.992H2.32067C2.3777 28.243 5.42965 25.2195 9.19247 25.2195C12.9553 25.2195 16.0072 28.243 16.0633 31.992H17.3848C17.4408 28.243 20.4927 25.2195 24.2556 25.2195C28.0184 25.2195 31.0703 28.243 31.1274 31.992H32.4144C32.4705 28.243 35.5234 25.2195 39.2852 25.2195C43.0481 25.2195 46.101 28.243 46.157 31.992H47.4441C47.5011 28.243 50.5531 25.2195 54.3159 25.2195C58.0777 25.2195 61.1307 28.243 61.1867 31.992H62.7186Z" fill="#9C8A5E"/>
<path d="M31.7751 26.6235V53.1659C31.7751 56.9975 28.6406 60.132 24.809 60.132C20.9793 60.132 17.8438 56.9975 17.8438 53.1659" stroke="#9C8A5E" stroke-width="2.94969"/>
</svg>
