<svg width="86" height="50" viewBox="0 0 86 50" fill="none" xmlns="http://www.w3.org/2000/svg">
<mask id="mask0_147_3392" style="mask-type:alpha" maskUnits="userSpaceOnUse" x="0" y="0" width="86" height="50">
<path d="M0.476562 0.975098H85.5531V49.1908H0.476562V0.975098Z" fill="white"/>
</mask>
<g mask="url(#mask0_147_3392)">
<path fill-rule="evenodd" clip-rule="evenodd" d="M85.5536 20.1137C85.5536 20.1137 55.4018 14.7954 46.6343 0.975098H38.9317C33.7717 14.7934 0.487378 20.1815 0.476562 20.1835L19.624 25.4703V44.2668C19.624 46.9864 30.0718 49.1908 42.96 49.1908C55.8472 49.1908 66.295 46.9864 66.295 44.2668V25.4487L75.2296 22.9739V32.9714L72.5887 36.3803L74.9209 38.1865L76.7458 35.8306L78.8499 38.3536L81.1153 36.4648L78.1793 32.9429V22.1568L85.5536 20.1137Z" fill="#9C8A5E"/>
</g>
</svg>
