<svg width="82" height="50" viewBox="0 0 82 50" fill="none" xmlns="http://www.w3.org/2000/svg">
<path fill-rule="evenodd" clip-rule="evenodd" d="M63.526 27.982V26.7982C68.9544 24.9536 72.8667 19.8261 72.8667 13.7733C72.8667 6.17098 66.7038 0.00808716 59.1014 0.00808716C51.4991 0.00808716 45.3362 6.17098 45.3362 13.7733C45.3362 19.8261 49.2485 24.9536 54.6769 26.7982V27.982C49.0833 29.1127 44.2596 32.3525 41.0503 36.8281C37.842 32.3554 33.0271 29.1127 27.4355 27.982V26.7982C32.8649 24.9536 36.7762 19.8261 36.7762 13.7733C36.7762 6.17098 30.6133 0.00808716 23.011 0.00808716C15.4086 0.00808716 9.24572 6.17098 9.24572 13.7733C9.24572 19.8261 13.158 24.9536 18.5864 26.7982V27.982C8.44242 30.033 0.804688 38.9961 0.804688 49.7448H36.8952H45.2182H81.3077C81.3077 38.9961 73.67 30.033 63.526 27.982Z" fill="#9C8A5E"/>
</svg>
