<svg width="249" height="125" viewBox="0 0 249 125" fill="none" xmlns="http://www.w3.org/2000/svg">
<path fill-rule="evenodd" clip-rule="evenodd" d="M88.9121 1.99327L86.8904 0.912109L86.3112 1.94087C74.8956 23.0732 64.2302 44.8481 55.7243 67.3815C54.3204 71.1628 52.9442 74.991 51.6175 78.8605C49.0056 86.561 46.6447 94.3443 44.6479 102.23C42.4304 93.481 39.8075 84.8428 36.8426 76.3148C40.144 76.2486 43.4426 76.2349 46.7413 76.2431C47.8721 73.3775 49.0332 70.5257 50.2357 67.6904C44.7693 67.4532 39.289 67.5607 33.839 68.0048C25.2946 45.248 14.5298 23.2524 3.01216 1.94087L2.43572 0.912109L0.414062 1.99327L0.929821 3.05788C10.8202 24.2757 20.0294 46.205 27.0901 68.7164C20.8872 69.5548 14.7588 70.8511 8.77651 72.6135L6.31356 73.3692L7.13547 77.807L9.70598 77.6442C16.3253 77.1367 22.895 76.7727 29.4454 76.5327C33.9411 92.091 37.2949 107.925 39.0876 123.991C42.7972 123.745 46.5179 123.718 50.2275 123.925C51.2314 114.591 52.7263 105.291 54.8086 96.0267C56.3614 89.4708 58.1321 82.9645 60.0213 76.4886C66.5276 76.7175 73.0477 77.0871 79.6202 77.6442L82.1879 77.8235L83.0153 73.3527C76.2857 71.2703 69.3546 69.7617 62.3409 68.7991C69.3822 46.2905 78.2742 24.3115 88.3963 3.05788L88.9121 1.99327Z" fill="#9C8A5E"/>
<path fill-rule="evenodd" clip-rule="evenodd" d="M97.0135 103.659L100.651 93.9559C100.671 93.9063 100.726 93.8594 100.792 93.8594H102.494C102.554 93.8594 102.607 93.9063 102.629 93.9559L106.264 103.659C106.314 103.794 106.231 103.91 106.096 103.91H104.463C104.389 103.91 104.328 103.86 104.3 103.794L103.525 101.77C103.506 101.709 103.459 101.667 103.398 101.667H99.7274C99.6667 101.667 99.6116 101.709 99.5978 101.761L98.8007 103.808C98.7759 103.86 98.7152 103.91 98.6545 103.91H97.1817C97.0466 103.91 96.9666 103.794 97.0135 103.659ZM102.717 100.043C102.844 100.043 102.919 99.9326 102.877 99.8058L101.575 96.383L100.265 99.8058C100.227 99.9326 100.301 100.043 100.428 100.043H102.717Z" fill="#9C8A5E"/>
<path fill-rule="evenodd" clip-rule="evenodd" d="M113.297 103.748V94.117C113.297 94.0315 113.377 93.957 113.465 93.957H115.12C115.214 93.957 115.288 94.0315 115.288 94.117V102.135C115.288 102.209 115.349 102.278 115.437 102.278H119.621C119.715 102.278 119.781 102.353 119.781 102.438V103.748C119.781 103.842 119.715 103.911 119.621 103.911H113.465C113.377 103.911 113.297 103.842 113.297 103.748Z" fill="#9C8A5E"/>
<path fill-rule="evenodd" clip-rule="evenodd" d="M128 103.748V95.7774C128 95.7029 127.939 95.6312 127.851 95.6312H125.131C125.038 95.6312 124.969 95.5622 124.969 95.474V94.117C124.969 94.0315 125.038 93.957 125.131 93.957H132.86C132.953 93.957 133.02 94.0315 133.02 94.117V95.474C133.02 95.5622 132.953 95.6312 132.86 95.6312H130.132C130.052 95.6312 129.991 95.7029 129.991 95.7774V103.748C129.991 103.842 129.908 103.911 129.823 103.911H128.168C128.074 103.911 128 103.842 128 103.748Z" fill="#9C8A5E"/>
<path fill-rule="evenodd" clip-rule="evenodd" d="M140.141 103.748V94.117C140.141 94.0315 140.215 93.957 140.303 93.957H146.754C146.843 93.957 146.917 94.0315 146.917 94.117V95.474C146.917 95.5622 146.843 95.6312 146.754 95.6312H142.273C142.193 95.6312 142.124 95.7029 142.124 95.7774V97.9452C142.124 98.0252 142.193 98.0941 142.273 98.0941H145.883C145.971 98.0941 146.046 98.1686 146.046 98.2624V99.5173C146.046 99.6055 145.971 99.68 145.883 99.68H142.273C142.193 99.68 142.124 99.7462 142.124 99.8207V102.143C142.124 102.223 142.193 102.289 142.273 102.289H146.903C146.997 102.289 147.072 102.364 147.072 102.452V103.748C147.072 103.842 146.997 103.911 146.903 103.911H140.303C140.215 103.911 140.141 103.842 140.141 103.748Z" fill="#9C8A5E"/>
<path fill-rule="evenodd" clip-rule="evenodd" d="M154.719 103.748V94.117C154.719 94.0315 154.799 93.957 154.887 93.957H158.282C160.718 93.957 162.257 94.9554 162.257 97.1895C162.257 98.6402 161.603 99.5918 160.387 100.063C160.287 100.096 160.246 100.199 160.293 100.287L162.163 103.613C162.237 103.754 162.149 103.911 161.981 103.911H160.287C160.227 103.911 160.171 103.875 160.144 103.828L158.268 100.483C158.249 100.441 158.194 100.414 158.147 100.414C158.012 100.427 157.871 100.436 157.722 100.436H156.818C156.743 100.436 156.669 100.51 156.669 100.582V103.748C156.669 103.842 156.594 103.911 156.506 103.911H154.887C154.799 103.911 154.719 103.842 154.719 103.748ZM158.221 98.8884C159.592 98.8884 160.32 98.3286 160.32 97.2364C160.32 96.1414 159.592 95.5953 158.221 95.5953H156.818C156.738 95.5953 156.669 95.6643 156.669 95.7443V98.7423C156.669 98.814 156.743 98.8884 156.818 98.8884H158.221Z" fill="#9C8A5E"/>
<path fill-rule="evenodd" clip-rule="evenodd" d="M169.961 103.748V94.117C169.961 94.0315 170.041 93.957 170.129 93.957H171.87C171.93 93.957 171.991 93.9901 172.027 94.037L176.36 100.474C176.426 100.582 176.58 100.535 176.58 100.408V94.117C176.58 94.0315 176.655 93.957 176.749 93.957H178.301C178.395 93.957 178.47 94.0315 178.47 94.117V103.748C178.47 103.842 178.395 103.911 178.301 103.911H176.663C176.616 103.911 176.561 103.875 176.52 103.828L172.074 97.3715C172.005 97.2639 171.858 97.3163 171.858 97.4377V103.748C171.858 103.842 171.784 103.911 171.687 103.911H170.129C170.041 103.911 169.961 103.842 169.961 103.748Z" fill="#9C8A5E"/>
<path fill-rule="evenodd" clip-rule="evenodd" d="M185.506 103.659L189.144 93.9559C189.163 93.9063 189.218 93.8594 189.284 93.8594H190.986C191.047 93.8594 191.099 93.9063 191.121 93.9559L194.759 103.659C194.806 103.794 194.723 103.91 194.588 103.91H192.955C192.881 103.91 192.82 103.86 192.795 103.794L192.017 101.77C191.998 101.709 191.951 101.667 191.891 101.667H188.22C188.159 101.667 188.104 101.709 188.09 101.761L187.293 103.808C187.268 103.86 187.207 103.91 187.147 103.91H185.674C185.539 103.91 185.459 103.794 185.506 103.659ZM191.209 100.043C191.336 100.043 191.411 99.9326 191.369 99.8058L190.068 96.383L188.757 99.8058C188.719 99.9326 188.793 100.043 188.92 100.043H191.209Z" fill="#9C8A5E"/>
<path fill-rule="evenodd" clip-rule="evenodd" d="M202.984 103.748V95.7774C202.984 95.7029 202.924 95.6312 202.835 95.6312H200.116C200.022 95.6312 199.953 95.5622 199.953 95.474V94.117C199.953 94.0315 200.022 93.957 200.116 93.957H207.844C207.938 93.957 208.004 94.0315 208.004 94.117V95.474C208.004 95.5622 207.938 95.6312 207.844 95.6312H205.116C205.036 95.6312 204.976 95.7029 204.976 95.7774V103.748C204.976 103.842 204.893 103.911 204.807 103.911H203.152C203.059 103.911 202.984 103.842 202.984 103.748Z" fill="#9C8A5E"/>
<path fill-rule="evenodd" clip-rule="evenodd" d="M215.156 103.748V94.117C215.156 94.0315 215.222 93.957 215.311 93.957H216.971C217.065 93.957 217.134 94.0315 217.134 94.117V103.748C217.134 103.842 217.065 103.911 216.971 103.911H215.311C215.222 103.911 215.156 103.842 215.156 103.748Z" fill="#9C8A5E"/>
<path fill-rule="evenodd" clip-rule="evenodd" d="M227.961 103.841L224.412 94.2096C224.365 94.0772 224.445 93.9531 224.588 93.9531H226.24C226.301 93.9531 226.356 93.9945 226.381 94.0635L229.015 101.392L231.707 94.0635C231.726 93.9945 231.781 93.9531 231.848 93.9531H233.359C233.489 93.9531 233.577 94.0772 233.53 94.2096L229.98 103.841C229.958 103.896 229.906 103.935 229.837 103.935H228.097C228.036 103.935 227.981 103.896 227.961 103.841Z" fill="#9C8A5E"/>
<path fill-rule="evenodd" clip-rule="evenodd" d="M240.797 103.748V94.117C240.797 94.0315 240.871 93.957 240.96 93.957H247.411C247.499 93.957 247.573 94.0315 247.573 94.117V95.474C247.573 95.5622 247.499 95.6312 247.411 95.6312H242.929C242.849 95.6312 242.78 95.7029 242.78 95.7774V97.9452C242.78 98.0252 242.849 98.0941 242.929 98.0941H246.539C246.627 98.0941 246.702 98.1686 246.702 98.2624V99.5173C246.702 99.6055 246.627 99.68 246.539 99.68H242.929C242.849 99.68 242.78 99.7462 242.78 99.8207V102.143C242.78 102.223 242.849 102.289 242.929 102.289H247.56C247.653 102.289 247.728 102.364 247.728 102.452V103.748C247.728 103.842 247.653 103.911 247.56 103.911H240.96C240.871 103.911 240.797 103.842 240.797 103.748Z" fill="#9C8A5E"/>
<path fill-rule="evenodd" clip-rule="evenodd" d="M98.0312 123.787V114.156C98.0312 114.071 98.0974 113.996 98.1857 113.996H99.8461C99.9398 113.996 100.009 114.071 100.009 114.156V123.787C100.009 123.881 99.9398 123.95 99.8461 123.95H98.1857C98.0974 123.95 98.0312 123.881 98.0312 123.787Z" fill="#9C8A5E"/>
<path fill-rule="evenodd" clip-rule="evenodd" d="M107.43 123.787V114.156C107.43 114.071 107.51 113.996 107.598 113.996H109.338C109.399 113.996 109.46 114.029 109.495 114.076L113.828 120.513C113.895 120.621 114.049 120.574 114.049 120.447V114.156C114.049 114.071 114.124 113.996 114.217 113.996H115.77C115.864 113.996 115.938 114.071 115.938 114.156V123.787C115.938 123.881 115.864 123.95 115.77 123.95H114.132C114.085 123.95 114.03 123.914 113.988 123.867L109.542 117.411C109.473 117.303 109.327 117.355 109.327 117.477V123.787C109.327 123.881 109.253 123.95 109.156 123.95H107.598C107.51 123.95 107.43 123.881 107.43 123.787Z" fill="#9C8A5E"/>
<path fill-rule="evenodd" clip-rule="evenodd" d="M125.704 123.88L122.154 114.249C122.107 114.116 122.187 113.992 122.331 113.992H123.983C124.043 113.992 124.098 114.034 124.123 114.103L126.757 121.431L129.449 114.103C129.468 114.034 129.524 113.992 129.59 113.992H131.101C131.231 113.992 131.319 114.116 131.272 114.249L127.723 123.88C127.701 123.935 127.648 123.974 127.579 123.974H125.839C125.778 123.974 125.723 123.935 125.704 123.88Z" fill="#9C8A5E"/>
<path fill-rule="evenodd" clip-rule="evenodd" d="M137.484 123.787V114.156C137.484 114.071 137.559 113.996 137.647 113.996H144.098C144.186 113.996 144.261 114.071 144.261 114.156V115.513C144.261 115.601 144.186 115.67 144.098 115.67H139.616C139.536 115.67 139.467 115.742 139.467 115.816V117.984C139.467 118.064 139.536 118.133 139.616 118.133H143.227C143.315 118.133 143.389 118.208 143.389 118.301V119.556C143.389 119.645 143.315 119.719 143.227 119.719H139.616C139.536 119.719 139.467 119.785 139.467 119.86V122.182C139.467 122.262 139.536 122.328 139.616 122.328H144.247C144.341 122.328 144.415 122.403 144.415 122.491V123.787C144.415 123.881 144.341 123.95 144.247 123.95H137.647C137.559 123.95 137.484 123.881 137.484 123.787Z" fill="#9C8A5E"/>
<path fill-rule="evenodd" clip-rule="evenodd" d="M151.161 121.431C152.113 122.046 153.577 122.537 154.473 122.537C155.999 122.537 156.73 122.145 156.749 121.29C156.768 120.568 156.142 120.121 154.576 119.751C152.788 119.327 150.918 118.86 150.938 116.775C150.96 114.905 152.788 113.824 154.953 113.824C155.891 113.824 157.066 114.07 157.91 114.448C157.938 114.459 157.949 114.481 157.949 114.508V116.127C157.949 116.193 157.888 116.24 157.822 116.207C156.986 115.755 155.853 115.46 154.94 115.46C153.886 115.46 152.923 115.884 152.901 116.613C152.888 117.509 153.754 117.793 155.022 118.091C156.95 118.535 158.726 119.266 158.707 121.268C158.685 122.89 157.16 124.131 154.388 124.131C153.34 124.131 151.986 123.8 151.053 123.301C151.034 123.279 151.02 123.268 151.02 123.24V121.505C151.02 121.431 151.095 121.39 151.161 121.431Z" fill="#9C8A5E"/>
<path fill-rule="evenodd" clip-rule="evenodd" d="M167.437 123.787V115.816C167.437 115.742 167.377 115.67 167.288 115.67H164.569C164.475 115.67 164.406 115.601 164.406 115.513V114.156C164.406 114.071 164.475 113.996 164.569 113.996H172.297C172.391 113.996 172.457 114.071 172.457 114.156V115.513C172.457 115.601 172.391 115.67 172.297 115.67H169.569C169.489 115.67 169.429 115.742 169.429 115.816V123.787C169.429 123.881 169.346 123.95 169.26 123.95H167.606C167.512 123.95 167.437 123.881 167.437 123.787Z" fill="#9C8A5E"/>
<path fill-rule="evenodd" clip-rule="evenodd" d="M178.82 123.801V114.145C178.82 114.062 178.9 113.996 178.983 113.996H181.507C181.567 113.996 181.628 114.037 181.647 114.104L183.983 121.52C184.003 121.586 184.077 121.586 184.091 121.52L186.331 114.104C186.344 114.048 186.413 113.996 186.479 113.996H189.05C189.138 113.996 189.213 114.062 189.213 114.145V123.801C189.213 123.881 189.138 123.95 189.05 123.95H187.412C187.323 123.95 187.254 123.881 187.254 123.801V116.87C187.254 116.818 187.188 116.809 187.169 116.864L184.907 123.795C184.88 123.889 184.805 123.95 184.717 123.95H183.195C183.098 123.95 183.024 123.889 183.004 123.795L180.765 116.829C180.751 116.776 180.668 116.776 180.668 116.829V123.801C180.668 123.881 180.597 123.95 180.508 123.95H178.983C178.9 123.95 178.82 123.881 178.82 123.801Z" fill="#9C8A5E"/>
<path fill-rule="evenodd" clip-rule="evenodd" d="M196.617 123.787V114.156C196.617 114.071 196.692 113.996 196.78 113.996H203.231C203.319 113.996 203.394 114.071 203.394 114.156V115.513C203.394 115.601 203.319 115.67 203.231 115.67H198.749C198.669 115.67 198.6 115.742 198.6 115.816V117.984C198.6 118.064 198.669 118.133 198.749 118.133H202.359C202.448 118.133 202.522 118.208 202.522 118.301V119.556C202.522 119.645 202.448 119.719 202.359 119.719H198.749C198.669 119.719 198.6 119.785 198.6 119.86V122.182C198.6 122.262 198.669 122.328 198.749 122.328H203.38C203.474 122.328 203.548 122.403 203.548 122.491V123.787C203.548 123.881 203.474 123.95 203.38 123.95H196.78C196.692 123.95 196.617 123.881 196.617 123.787Z" fill="#9C8A5E"/>
<path fill-rule="evenodd" clip-rule="evenodd" d="M210.445 123.787V114.156C210.445 114.071 210.525 113.996 210.614 113.996H212.354C212.415 113.996 212.475 114.029 212.511 114.076L216.844 120.513C216.91 120.621 217.065 120.574 217.065 120.447V114.156C217.065 114.071 217.139 113.996 217.233 113.996H218.786C218.879 113.996 218.954 114.071 218.954 114.156V123.787C218.954 123.881 218.879 123.95 218.786 123.95H217.147C217.101 123.95 217.045 123.914 217.004 123.867L212.558 117.411C212.489 117.303 212.34 117.355 212.34 117.477V123.787C212.34 123.881 212.268 123.95 212.172 123.95H210.614C210.525 123.95 210.445 123.881 210.445 123.787Z" fill="#9C8A5E"/>
<path fill-rule="evenodd" clip-rule="evenodd" d="M228.648 123.787V115.816C228.648 115.742 228.588 115.67 228.499 115.67H225.78C225.686 115.67 225.617 115.601 225.617 115.513V114.156C225.617 114.071 225.686 113.996 225.78 113.996H233.508C233.602 113.996 233.668 114.071 233.668 114.156V115.513C233.668 115.601 233.602 115.67 233.508 115.67H230.78C230.7 115.67 230.64 115.742 230.64 115.816V123.787C230.64 123.881 230.557 123.95 230.471 123.95H228.817C228.723 123.95 228.648 123.881 228.648 123.787Z" fill="#9C8A5E"/>
<path fill-rule="evenodd" clip-rule="evenodd" d="M240.349 121.431C241.3 122.046 242.765 122.537 243.661 122.537C245.186 122.537 245.917 122.145 245.936 121.29C245.956 120.568 245.33 120.121 243.763 119.751C241.976 119.327 240.106 118.86 240.125 116.775C240.147 114.905 241.976 113.824 244.141 113.824C245.079 113.824 246.254 114.07 247.098 114.448C247.125 114.459 247.136 114.481 247.136 114.508V116.127C247.136 116.193 247.075 116.24 247.009 116.207C246.174 115.755 245.04 115.46 244.127 115.46C243.074 115.46 242.111 115.884 242.089 116.613C242.075 117.509 242.941 117.793 244.21 118.091C246.138 118.535 247.914 119.266 247.892 121.268C247.873 122.89 246.347 124.131 243.575 124.131C242.527 124.131 241.17 123.8 240.241 123.301C240.219 123.279 240.208 123.268 240.208 123.24V121.505C240.208 121.431 240.282 121.39 240.349 121.431Z" fill="#9C8A5E"/>
<path fill-rule="evenodd" clip-rule="evenodd" d="M248.142 48.9336H243.58V54.6952L229.321 63.2645L215.062 54.6952V48.9336H210.5V57.2768L224.894 65.9233L210.5 74.5726V81.8704H215.062V77.1514L229.321 68.5848L243.58 77.1514V81.8704H248.142V74.5726L233.75 65.9233L248.142 57.2768V48.9336Z" fill="#9C8A5E"/>
<path fill-rule="evenodd" clip-rule="evenodd" d="M114.161 82.711C104.616 82.711 96.8516 74.9443 96.8516 65.4014C96.8516 55.8585 104.616 48.0918 114.161 48.0918C123.707 48.0918 131.471 55.8585 131.471 65.4014C131.471 74.9443 123.707 82.711 114.161 82.711ZM114.161 52.6564C107.134 52.6564 101.413 58.3739 101.413 65.4014C101.413 72.429 107.134 78.1492 114.161 78.1492C121.189 78.1492 126.909 72.429 126.909 65.4014C126.909 58.3739 121.189 52.6564 114.161 52.6564Z" fill="#9C8A5E"/>
<path fill-rule="evenodd" clip-rule="evenodd" d="M162.361 81.8704H168.793L156.056 69.1337H157.212C162.789 69.1337 167.312 64.6132 167.312 59.0336C167.312 53.4568 162.789 48.9336 157.212 48.9336H134.894L134.883 81.8704H139.445V69.1337H149.625L162.361 81.8704ZM139.456 53.4982H157.212C160.265 53.4982 162.75 55.9804 162.75 59.0336C162.75 62.0868 160.265 64.5718 157.212 64.5718H139.456V53.4982Z" fill="#9C8A5E"/>
<path fill-rule="evenodd" clip-rule="evenodd" d="M207.003 48.9336H202.441V54.9572L188.38 67.3519L174.32 54.9572V48.9336H169.758V57.0148L186.099 71.4228V81.8704H190.661V71.4228L207.003 57.0148V48.9336Z" fill="#9C8A5E"/>
</svg>
